<?xml version="1.0" encoding="UTF-8"?>
<!DOCTYPE svg PUBLIC "-//W3C//DTD SVG 1.1//EN" "http://www.w3.org/Graphics/SVG/1.1/DTD/svg11.dtd">
<svg version="1.1" xmlns="http://www.w3.org/2000/svg" xmlns:xlink="http://www.w3.org/1999/xlink" x="0" y="0" width="125" height="175" viewBox="0, 0, 310, 470">
  <g>
    <path d="M308.706,417.787 C308.346,416.635 307.554,415.842 306.762,415.266 C307.41,415.842 307.914,416.491 308.202,417.283 C308.49,418.075 308.562,419.011 308.202,420.091 C307.626,422.179 305.61,424.339 303.306,425.995 C300.93,427.651 298.194,428.947 295.314,429.883 C292.434,430.891 289.409,431.611 286.385,432.115 C280.265,433.123 274.001,433.339 267.737,433.051 C261.472,432.763 255.136,431.971 248.944,430.819 C236.487,428.515 224.247,424.843 212.51,420.739 C209.558,419.731 206.678,418.651 203.726,417.643 C202.286,417.139 200.774,416.635 199.334,416.13 C198.614,415.842 197.894,415.626 197.174,415.338 C196.454,415.122 195.734,414.906 194.942,414.618 C191.99,413.682 189.109,412.746 186.157,411.882 C183.205,411.09 180.325,410.298 177.445,409.578 C166.789,407.058 155.556,405.33 143.676,405.978 C137.771,406.194 131.651,407.274 125.675,409.002 C119.699,410.73 113.794,413.394 108.538,416.635 C106.666,417.571 104.938,418.579 103.21,419.659 C103.138,423.547 102.562,427.651 101.266,431.683 C97.594,442.988 87.297,457.964 58.712,464.732 L57.128,465.092 L57.272,465.164 C58.496,465.236 59.792,465.02 61.016,464.732 C62.24,464.444 63.464,464.084 64.617,463.58 C65.841,463.076 67.065,462.86 68.289,462.788 C68.865,462.716 69.513,462.788 70.089,462.788 C70.737,462.788 71.313,462.788 71.961,462.788 C73.185,462.788 74.409,462.788 75.633,462.572 C76.857,462.284 78.009,461.924 79.161,461.132 C80.529,460.268 81.969,459.404 83.481,458.9 C84.993,458.324 86.505,457.748 88.017,457.244 C89.601,456.74 91.114,456.092 92.554,455.444 C94.066,454.724 95.362,453.788 96.586,452.708 C101.05,448.532 104.794,444.068 108.754,440.107 C112.714,436.147 117.035,432.835 122.003,430.963 C131.291,427.579 140.291,425.923 149.508,425.779 C158.724,425.707 168.013,427.075 177.301,430.315 C180.037,431.323 182.773,432.187 185.653,433.123 C188.533,434.059 191.414,434.923 194.294,435.787 C197.246,436.651 200.198,437.443 203.15,438.091 C206.246,438.811 209.486,439.459 212.582,439.891 C217.191,440.539 224.031,442.124 230.799,443.132 C237.639,444.14 244.408,444.428 248.656,442.844 C237.711,443.06 226.767,439.891 216.831,436.363 C228.135,437.875 239.727,439.459 251.536,440.179 C257.44,440.539 263.344,440.683 269.249,440.395 C275.153,440.107 281.129,439.531 286.961,438.163 C281.489,439.171 276.017,439.675 270.545,439.819 C265.144,439.963 259.744,439.747 254.488,439.315 C243.904,438.379 233.535,436.363 223.599,433.555 C218.631,432.115 213.662,430.531 208.838,428.731 C207.614,428.299 206.462,427.795 205.238,427.363 C204.086,426.931 202.934,426.427 201.71,425.995 C199.406,425.059 197.03,424.051 194.726,423.115 C185.437,419.299 176.149,415.338 166.429,411.522 C177.877,413.322 189.541,416.635 201.422,420.451 C207.326,422.323 213.302,424.339 219.423,426.139 C225.543,427.939 231.735,429.523 237.999,430.819 C250.528,433.483 263.416,435.067 275.945,434.419 C282.209,434.059 288.401,433.123 294.234,431.251 C297.114,430.315 299.922,429.091 302.37,427.507 C304.818,425.923 306.978,423.979 308.13,421.747 C308.778,420.451 308.994,418.939 308.634,417.859 z" fill="#4C4949"/>
    <path d="M261.184,15.363 C253.408,29.979 127.043,263.988 122.147,277.309 C118.835,286.237 118.115,290.342 118.691,293.582 C117.683,293.654 116.603,293.942 115.523,294.59 C113.074,296.03 110.41,299.342 110.482,304.166 C109.474,304.742 108.538,305.606 107.674,306.83 C106.234,308.846 104.938,312.014 105.658,314.895 C105.874,315.687 106.09,316.407 106.378,317.199 C102.922,325.767 79.665,383.441 78.945,387.113 C78.873,387.617 78.801,388.193 78.873,388.697 C59.36,390.858 52.376,407.562 45.608,423.763 C38.335,441.188 31.495,457.604 10.47,459.044 L2.478,459.62 L10.182,461.852 C29.983,467.541 45.536,465.308 54.752,462.716 C56.12,462.356 57.344,461.924 58.424,461.564 C58.208,461.852 57.992,462.14 57.632,462.356 L55.112,464.3 L52.52,466.316 L56.912,465.236 C56.912,465.308 56.912,465.452 56.912,465.524 C56.912,465.452 56.912,465.308 56.912,465.236 L57.2,465.164 L58.784,464.804 C87.369,457.964 97.738,443.06 101.338,431.755 C102.634,427.723 103.282,423.619 103.282,419.731 C103.426,411.522 101.122,404.034 97.738,399.138 C98.242,398.922 98.746,398.706 99.178,398.418 C104.29,394.89 131.939,339.879 136.619,330.519 C138.131,330.087 139.427,329.439 140.363,328.431 C142.956,325.767 143.172,321.303 143.1,319.431 C144.684,318.063 145.692,315.975 145.98,313.454 C146.268,311.078 145.764,308.558 144.684,306.758 C147.564,305.246 150.444,302.15 155.268,294.302 C162.612,282.133 266.008,35.811 272.705,20.619 C282.785,-2.422 270.977,-2.782 261.256,15.435 z M116.531,318.207 L116.531,318.207 C116.171,319.575 116.171,321.015 116.603,322.311 C116.747,322.671 116.891,323.103 117.107,323.463 C115.307,322.527 113.938,321.591 112.786,320.799 C112.642,320.079 112.642,319.359 112.714,318.711 C112.786,317.631 112.93,316.623 113.218,315.687 C113.506,314.75 113.794,313.814 114.37,313.022 C114.514,312.734 114.73,312.518 115.018,312.302 C116.099,313.238 117.323,314.174 118.619,315.039 C117.611,315.903 116.963,317.127 116.603,318.279 z M120.779,306.902 L120.779,306.902 C120.203,308.414 120.059,309.998 120.347,311.654 C120.419,312.086 120.563,312.518 120.707,312.95 C119.339,312.086 118.043,311.222 116.963,310.286 C116.819,309.494 116.891,308.702 116.963,307.91 C117.107,306.686 117.395,305.462 117.827,304.238 C118.259,303.086 118.763,301.934 119.483,300.926 C119.987,300.206 120.563,299.558 121.427,299.054 C122.795,300.062 124.235,300.998 125.747,301.862 C125.747,301.862 125.747,301.862 125.747,301.862 C124.955,302.006 124.163,302.438 123.515,302.942 C122.219,303.95 121.355,305.39 120.779,306.83 z M116.819,296.966 L116.819,296.966 C117.755,296.39 118.691,296.246 119.411,296.39 C119.627,296.966 119.915,297.542 120.203,298.118 C120.275,298.19 120.347,298.19 120.419,298.262 C120.347,298.262 120.275,298.262 120.203,298.262 C119.411,298.406 118.619,298.838 117.971,299.342 C116.675,300.35 115.811,301.79 115.235,303.23 C114.658,304.67 114.514,306.326 114.73,307.91 C113.866,306.758 113.29,305.678 113.218,304.742 C112.858,300.782 114.874,298.046 116.819,296.966 z M109.834,308.414 L109.834,308.414 C110.194,307.838 110.626,307.478 110.986,307.118 C111.49,308.414 112.426,309.71 113.578,310.934 C113.29,311.078 113.074,311.222 112.786,311.366 C111.562,312.23 110.77,313.598 110.41,314.895 C110.122,316.119 110.05,317.343 110.41,318.567 C108.97,316.911 108.61,315.471 108.25,314.102 C107.89,312.518 108.538,310.214 109.834,308.342 z M81.537,387.617 L81.537,387.617 C82.041,385.097 97.306,346.792 108.034,320.151 C108.538,320.799 109.186,321.447 109.906,322.095 L81.753,389.849 C81.465,389.129 81.321,388.409 81.465,387.617 z M98.53,430.891 L98.53,430.891 C95.29,441.043 86.145,454.292 61.664,461.132 C61.952,460.556 62.24,460.124 62.816,459.62 L71.457,452.564 L61.376,457.244 C52.016,461.636 36.031,464.516 17.527,460.772 C34.951,456.308 41.576,440.323 48.056,424.843 C54.824,408.57 61.232,393.234 79.521,391.434 C79.665,391.722 79.809,392.01 80.025,392.298 C78.225,393.018 76.641,393.954 75.129,395.034 C73.041,396.474 71.241,398.202 69.585,400.074 C68.001,401.946 66.633,404.106 65.625,406.41 C64.688,408.714 64.184,411.162 64.256,413.61 C64.4,411.162 65.121,408.858 66.273,406.698 C67.425,404.61 68.865,402.738 70.593,401.082 C72.321,399.426 74.193,397.986 76.209,396.834 C77.793,395.898 79.521,395.178 81.177,394.674 C80.889,395.034 80.529,395.322 80.241,395.682 C79.449,396.546 78.729,397.482 78.009,398.418 C76.569,400.29 75.273,402.306 74.193,404.322 C73.113,406.41 72.249,408.57 71.601,410.874 C71.025,413.106 70.809,415.482 70.809,417.787 C71.025,415.482 71.457,413.25 72.249,411.09 C73.041,409.002 74.121,406.914 75.345,405.042 C76.569,403.17 78.009,401.37 79.593,399.786 C80.889,398.418 82.257,397.122 83.625,396.042 C83.913,396.69 84.057,397.482 84.057,398.346 C84.129,399.354 84.057,400.434 83.985,401.442 C83.769,403.53 83.193,405.69 82.545,407.778 C81.825,409.866 80.961,411.882 79.881,413.754 C78.801,415.626 77.505,417.499 75.777,418.867 C77.649,417.715 79.161,415.914 80.529,414.114 C81.825,412.314 82.977,410.298 83.913,408.282 C84.849,406.194 85.641,404.034 86.145,401.802 C86.361,400.65 86.577,399.498 86.649,398.274 C86.649,398.202 86.649,398.13 86.649,398.058 C87.297,399.858 87.585,401.874 87.657,403.89 C87.729,406.266 87.441,408.714 86.937,411.162 C86.433,413.538 85.713,415.914 84.777,418.219 C84.345,419.371 83.769,420.451 83.193,421.603 C82.545,422.683 81.897,423.763 80.961,424.555 C81.969,423.835 82.761,422.755 83.481,421.747 C84.201,420.739 84.849,419.659 85.425,418.507 C86.577,416.275 87.585,413.898 88.305,411.522 C89.025,409.074 89.601,406.554 89.745,403.962 C89.89,402.306 89.817,400.578 89.529,398.85 C89.601,398.85 89.745,398.922 89.817,398.922 C90.538,402.594 91.186,406.194 91.33,409.794 C91.474,413.682 90.97,417.643 89.601,421.387 C88.305,425.131 86.217,428.587 83.841,431.755 L81.969,434.131 L79.953,436.363 C79.593,436.723 79.305,437.155 78.945,437.443 L77.865,438.523 L75.705,440.683 L78.009,438.667 L79.161,437.659 C79.521,437.299 79.881,436.939 80.241,436.579 L82.401,434.419 L84.417,432.115 C87.009,429.019 89.313,425.563 90.898,421.819 C92.482,418.003 93.346,413.898 93.418,409.722 C93.49,406.338 93.13,403.026 92.698,399.786 C93.634,401.586 94.498,403.602 95.218,405.546 C96.01,407.922 96.658,410.298 97.09,412.746 C97.306,413.97 97.378,415.194 97.45,416.491 C97.45,417.715 97.45,419.011 97.306,420.235 C97.162,421.459 96.874,422.683 96.514,423.907 C96.154,425.131 95.65,426.283 95.074,427.435 C95.794,426.355 96.37,425.275 96.874,424.051 C97.378,422.827 97.738,421.603 98.026,420.379 C98.314,419.083 98.458,417.859 98.53,416.563 C98.602,415.266 98.602,413.97 98.53,412.674 C98.386,410.082 97.954,407.49 97.306,404.97 C97.09,404.178 96.874,403.458 96.658,402.666 C100.33,409.506 101.986,420.379 98.674,430.819 z M97.522,396.042 L97.522,396.042 C96.37,396.834 94.426,396.978 92.266,396.618 C90.106,396.258 87.657,395.322 85.569,393.954 C85.353,393.81 85.137,393.666 84.849,393.45 L85.137,392.73 L113.434,324.615 C114.946,325.551 116.747,326.487 118.907,327.495 C123.731,329.799 128.483,330.879 132.443,330.879 C132.731,330.879 132.947,330.879 133.235,330.879 C120.707,355.864 100.978,393.666 97.594,395.97 z M138.275,326.415 L138.275,326.415 C135.611,329.151 127.619,328.575 120.059,324.975 C119.627,324.759 119.267,324.615 118.835,324.399 C118.691,323.535 118.691,322.743 118.691,321.951 C118.763,320.871 118.907,319.863 119.195,318.927 C119.483,317.991 119.771,317.055 120.347,316.263 C120.419,316.191 120.419,316.119 120.491,316.119 C125.603,318.927 131.867,320.943 137.267,321.231 C137.483,321.231 137.627,321.231 137.843,321.231 C138.707,321.231 139.499,321.087 140.291,320.871 C140.147,322.671 139.715,324.975 138.347,326.343 z M143.172,313.022 L143.172,313.022 C143.028,314.39 142.164,318.711 137.411,318.423 C132.227,318.135 126.971,316.335 122.579,314.03 C122.435,313.166 122.435,312.374 122.507,311.51 C122.651,310.286 122.939,309.062 123.371,307.838 C123.803,306.686 124.307,305.534 125.027,304.526 C125.531,303.806 126.107,303.086 127.043,302.654 C133.235,306.038 139.643,308.27 139.643,308.27 C140.436,308.054 141.156,307.91 141.876,307.694 C142.812,308.702 143.388,310.862 143.1,313.022 z M221.655,101.406 L221.655,101.406 L218.487,107.814 L212.15,120.631 C207.902,129.127 203.582,137.623 199.19,146.048 C194.87,154.544 190.405,162.896 186.013,171.393 L172.693,196.666 L159.372,221.867 C154.908,230.291 150.588,238.715 146.196,247.14 C141.876,255.636 137.555,264.06 133.595,272.701 C131.579,277.021 129.635,281.341 127.907,285.733 C127.043,287.965 126.251,290.198 125.603,292.43 C125.315,293.582 125.027,294.734 124.883,295.886 C124.811,296.462 124.811,297.038 124.883,297.614 C124.955,298.19 125.099,298.766 125.531,299.198 C125.027,298.838 124.883,298.19 124.739,297.614 C124.667,297.038 124.667,296.39 124.667,295.814 C124.739,294.59 124.955,293.438 125.171,292.286 C125.675,289.982 126.395,287.677 127.187,285.373 C128.699,280.837 130.499,276.445 132.299,272.053 C136.043,263.268 140.075,254.628 144.252,246.06 C148.356,237.491 152.748,228.995 157.068,220.499 C161.388,212.002 165.853,203.578 170.245,195.154 L183.709,169.953 L197.318,144.896 L210.998,119.839 L224.751,94.854 L221.655,101.262 z M270.473,16.227 L270.473,16.227 C269.105,19.107 238.647,91.542 237.639,92.334 C235.263,94.35 226.983,91.182 227.919,85.565 C227.919,85.565 256.792,30.411 266.08,14.283 C275.009,-1.27 273.641,9.674 270.473,16.227 z" fill="#292929"/>
  </g>
</svg>
